<?xml version="1.0" encoding="utf-8"?>
<!-- Generator: Adobe Illustrator 16.0.0, SVG Export Plug-In . SVG Version: 6.00 Build 0)  -->
<!DOCTYPE svg PUBLIC "-//W3C//DTD SVG 1.1//EN" "http://www.w3.org/Graphics/SVG/1.1/DTD/svg11.dtd">
<svg version="1.1" id="Layer_1" xmlns="http://www.w3.org/2000/svg" xmlns:xlink="http://www.w3.org/1999/xlink" x="0px" y="0px"
	 width="116px" height="116px" viewBox="0 0 116 116" enable-background="new 0 0 116 116" xml:space="preserve">
<path fill="#272626" d="M57.967,57.564L57.967,57.564L57.967,57.564L57.967,57.564L57.967,57.564z M62.831,0h-9.73l-5.753,15.473
	c-4.184,1.047-8.149,2.614-11.757,4.767l-15.199-7.072l-6.878,6.85l7.028,15.155c-2.221,3.692-3.822,7.68-4.852,11.753L0,52.7v9.732
	l15.676,5.753c1.044,4.184,2.71,8.149,4.863,11.752l-7.021,15.203l6.876,6.878l15.164-7.026c3.695,2.216,7.688,4.053,11.76,5.076
	L53.099,116h9.73l5.755-15.912c4.186-1.043,8.146-2.827,11.754-4.979l15.2,6.964l6.879-6.904L95.388,79.99
	c2.22-3.699,3.855-7.696,4.885-11.771L116,62.431v-9.732l-15.709-5.751c-1.048-4.186-2.735-8.149-4.885-11.757l7.014-15.2
	l-6.88-6.877l-15.166,7.027c-3.698-2.218-7.688-3.621-11.761-4.651L62.831,0z"/>
<circle fill="#FFFFFF" cx="57.967" cy="57.564" r="17"/>
<g>
	<path fill="#272626" d="M57.967,45.564c6.617,0,12,5.383,12,12s-5.383,12-12,12s-12-5.383-12-12S51.35,45.564,57.967,45.564
		 M57.967,42.564c-8.285,0-15,6.715-15,15s6.715,15,15,15s15-6.715,15-15S66.252,42.564,57.967,42.564L57.967,42.564z"/>
</g>
</svg>
